<svg xmlns="http://www.w3.org/2000/svg" width="400" height="340"><linearGradient id="grad1" x1="0%" y1="0%" x2="100%" y2="0%"><stop offset="0%" style="stop-color:#41d1ff;stop-opacity:1" /><stop offset="100%" style="stop-color:#00BFFF;stop-opacity:1" /></linearGradient><path fill="url(#grad1)" d="M344.79531159766975,290.74603703338653C345.7741879030813,308.9244279993897,306.21311220774635,328.189866381846,285.2858238517415,329.07034579601896C264.35853549573665,329.9508252101919,238.35821697843866,296.8599119074511,219.23158146164081,296.02891351842413C200.10494594484297,295.1979151293972,181.33958699971262,328.5389263692239,170.52601075095444,324.08435546185734C159.71243450219626,319.6297845544908,169.8995417079929,281.19471597628313,154.35012396909167,269.30148807422484C138.80070623019043,257.40826017216654,80.1535631768466,263.94869559458033,77.22950431754697,252.7249880495075C74.30544545824733,241.50128050443467,122.16914958075525,214.0505584324319,136.80577081329386,201.9592428037879C151.44239204583246,189.8679271751439,162.58533217726105,202.83975241644538,165.04923171277864,180.17709427764356C167.51313124829622,157.51443613884175,142.79508239820882,70.0714736294999,151.5891680263994,65.98329397097709C160.38325365458996,61.89511431245427,192.4586267315326,152.6080132359738,217.81374548192204,155.64801632650665C243.16886423231148,158.6880194170395,289.5673216119452,81.60931281908285,303.7198805287361,84.22331251417421C317.872439445527,86.83731220926558,306.78031806757815,148.7025665827505,302.72909898266744,171.33201449705481C298.6778798977567,193.96146241135912,272.4015305834382,200.09766291061138,279.41256601927194,220C286.42360145510565,239.90233708938862,343.8164352922582,272.56764606738335,344.79531159766975,290.74603703338653" stroke="none" stroke-width="3"/></svg>